<svg xmlns="http://www.w3.org/2000/svg" viewBox="0 0 103.43 150.61"><defs><style>.cls-1{fill:#3dccb1;}.cls-2{fill:#abf9ec;}.cls-3{font-size:36px;fill:#f2f1ec;font-family:ArchivoBlack-Regular, Archivo Black;letter-spacing:-0.03em;}.cls-4{letter-spacing:-0.05em;}.cls-5{letter-spacing:0em;}</style></defs><title>Ativo 9</title><g id="Camada_2" data-name="Camada 2"><g id="Camada_1-2" data-name="Camada 1"><path class="cls-1" d="M83.13,103.63c-5.37,0-10.74-.08-16.1,0a5.16,5.16,0,0,1-5.3-3.22c-5.91-12-12.5-23.6-17.77-35.82-9.27-21.44-6.89-42.34,5-62.26C51-1,53.24-.74,55.17,3.1Q68.49,29.68,81.74,56.26,91.94,76.65,102.16,97c2.46,4.92,1.45,6.54-4.06,6.57C93.12,103.65,88.12,103.63,83.13,103.63Z"/><path class="cls-2" d="M20.63,103.71c-5.37,0-10.73.07-16.09,0C0,103.63-1,101.79,1,97.77Q12.81,74,24.71,50.27c2.24-4.47,4.27-4.69,7.4-.82A57,57,0,0,1,44.77,83.09a42.36,42.36,0,0,1-3.19,17.48,4.51,4.51,0,0,1-4.86,3.21C31.38,103.62,26,103.71,20.63,103.71Z"/><text class="cls-3" transform="translate(11.18 141)">V<tspan class="cls-4" x="26.78" y="0">O</tspan><tspan class="cls-5" x="54.9" y="0">X</tspan></text></g></g></svg>